<svg width="27" height="27" viewBox="0 0 27 27" fill="none" xmlns="http://www.w3.org/2000/svg">
<g clip-path="url(#clip0_908_53)">
<path d="M13.5 27C20.9558 27 27 20.9558 27 13.5C27 6.04416 20.9558 0 13.5 0C6.04416 0 0 6.04416 0 13.5C0 20.9558 6.04416 27 13.5 27Z" fill="#FF6600"/>
<path fill-rule="evenodd" clip-rule="evenodd" d="M9.2846 20.0839L4.34721 14.7994C3.67125 14.0759 3.71005 12.9313 4.43352 12.2553C5.157 11.5794 6.30163 11.6183 6.97758 12.3417L10.7861 16.4178L16.8144 10.7853C16.8686 10.7346 16.9253 10.6882 16.9838 10.6454L19.8187 7.99679C20.5422 7.32083 21.6869 7.35974 22.3628 8.08321C23.0388 8.80657 22.9998 9.95131 22.2765 10.6273L13.618 18.7172L13.6087 18.7073L10.6137 21.5057L9.2846 20.0839Z" fill="white"/>
</g>
<defs>
<clipPath id="clip0_908_53">
<rect width="27" height="27" fill="white"/>
</clipPath>
</defs>
</svg>
