<svg width="246" height="246" viewBox="0 0 246 246" fill="none" xmlns="http://www.w3.org/2000/svg">
<circle cx="123.5" cy="122.5" r="107.5" fill="white"/>
<circle cx="123" cy="123" r="122" stroke="#FF6600" stroke-width="2"/>
<g clip-path="url(#clip0_1272_4)">
<path d="M98.2857 58H147.143C156.164 58 163.429 65.2482 163.429 74.25V171.75C163.429 180.752 156.164 188 147.143 188H98.2857C89.2641 188 82 180.752 82 171.75V74.25C82 65.2482 89.2641 58 98.2857 58Z" fill="#FFD1C0"/>
<path d="M157.321 76.2812V167.688C157.321 174.418 151.852 179.875 145.107 179.875H100.321C93.5764 179.875 88.1071 174.418 88.1071 167.688V76.2812C88.1071 69.551 93.5764 64.0938 100.321 64.0938H107.019C107.887 64.1005 108.654 64.6557 108.932 65.475L109.564 67.4047C110.117 69.0669 111.677 70.1875 113.431 70.1875H131.997C133.755 70.1875 135.312 69.0669 135.865 67.4047L136.496 65.4953C136.767 64.6591 137.548 64.0938 138.43 64.0938H145.107C148.347 64.0938 151.452 65.3768 153.745 67.662C156.036 69.9471 157.321 73.0482 157.321 76.2812Z" fill="white"/>
<path d="M102.357 102.688C101.234 102.688 100.321 101.777 100.321 100.656V94.5625C100.321 90.0768 103.969 86.4375 108.464 86.4375C109.587 86.4375 110.5 87.3482 110.5 88.4688C110.5 89.5893 109.587 90.5 108.464 90.5C106.215 90.5 104.393 92.318 104.393 94.5625V100.656C104.393 101.777 103.48 102.688 102.357 102.688Z" fill="#FF6600"/>
<path d="M136.964 167.688C127.97 167.688 120.679 160.412 120.679 151.438V143.312C120.679 142.192 121.591 141.281 122.714 141.281C123.837 141.281 124.75 142.192 124.75 143.312V151.438C124.75 158.168 130.219 163.625 136.964 163.625C143.709 163.625 149.179 158.168 149.179 151.438C149.179 145.828 153.735 141.281 159.357 141.281H173.607C174.73 141.281 175.643 142.192 175.643 143.312C175.643 144.433 174.73 145.344 173.607 145.344H159.357C155.985 145.344 153.25 148.072 153.25 151.438C153.25 160.412 145.959 167.688 136.964 167.688Z" fill="#FF6600"/>
<path d="M196 143.312C196 151.167 189.618 157.531 181.75 157.531C173.882 157.531 167.5 151.167 167.5 143.312C167.5 135.458 173.879 129.094 181.75 129.094C189.621 129.094 196 135.458 196 143.312Z" fill="#FF6600"/>
<path d="M189.893 143.312C189.893 147.798 186.246 151.438 181.75 151.438C177.254 151.438 173.607 147.798 173.607 143.312C173.607 138.827 177.254 135.188 181.75 135.188C186.246 135.188 189.893 138.827 189.893 143.312Z" fill="#FFD1C0"/>
<path d="M112.536 92.5312H110.5C109.377 92.5312 108.464 91.6206 108.464 90.5V86.4375C108.464 85.3169 109.377 84.4062 110.5 84.4062H112.536C114.785 84.4062 116.607 86.2242 116.607 88.4688C116.607 90.7133 114.785 92.5312 112.536 92.5312Z" fill="#E25B00"/>
<path d="M143.071 102.688C141.948 102.688 141.036 101.777 141.036 100.656V94.5625C141.036 92.318 139.214 90.5 136.964 90.5C135.841 90.5 134.929 89.5893 134.929 88.4688C134.929 87.3482 135.841 86.4375 136.964 86.4375C141.46 86.4375 145.107 90.0768 145.107 94.5625V100.656C145.107 101.777 144.194 102.688 143.071 102.688Z" fill="#FF6600"/>
<path d="M132.893 92.5312H134.929C136.052 92.5312 136.964 91.6206 136.964 90.5V86.4375C136.964 85.3169 136.052 84.4062 134.929 84.4062H132.893C130.643 84.4062 128.821 86.2242 128.821 88.4688C128.821 90.7133 130.643 92.5312 132.893 92.5312Z" fill="#E25B00"/>
<path d="M139 102.688V116.906C139 125.881 131.709 133.156 122.714 133.156C113.72 133.156 106.429 125.881 106.429 116.906V102.688C106.429 101.567 105.516 100.656 104.393 100.656H100.321C99.1984 100.656 98.2857 101.567 98.2857 102.688V116.906C98.2857 130.37 109.221 141.281 122.714 141.281C136.208 141.281 147.143 130.37 147.143 116.906V102.688C147.143 101.567 146.23 100.656 145.107 100.656H141.036C139.913 100.656 139 101.567 139 102.688Z" fill="#FFD1C0"/>
<path d="M118.643 137.219H126.786V143.312C126.786 144.433 125.873 145.344 124.75 145.344H120.679C119.556 145.344 118.643 144.433 118.643 143.312V137.219Z" fill="#E25B00"/>
<path d="M108.464 157.531H104.393V153.469H100.321V157.531H96.25V161.594H100.321V165.656H104.393V161.594H108.464V157.531Z" fill="#FF6600"/>
<path d="M151.214 74.25H147.143V70.1875H143.071V74.25H139V78.3125H143.071V82.375H147.143V78.3125H151.214V74.25Z" fill="#FF6600"/>
</g>
<defs>
<clipPath id="clip0_1272_4">
<rect width="114" height="130" fill="white" transform="translate(82 58)"/>
</clipPath>
</defs>
</svg>
