<svg width="106" height="105" viewBox="0 0 106 105" fill="none" xmlns="http://www.w3.org/2000/svg">
<g clip-path="url(#clip0_908_165)">
<path fill-rule="evenodd" clip-rule="evenodd" d="M35.0285 104.413C34.6576 104.413 34.3471 104.232 34.097 103.982L22.047 90.6896L6.83146 81.1238C6.46056 80.8737 6.2708 80.5028 6.2708 80.1319L5.58938 62.182L0.0603686 45.0429C-0.0603897 44.672 -1.05489e-05 44.2321 0.250132 43.9216L11.3082 29.698L18.0792 13.0506C18.2604 12.6797 18.5709 12.4295 18.9504 12.3088L36.5294 8.52213L52.4178 0.13805C52.7887 -0.0517133 53.2199 -0.0517133 53.5995 0.13805L69.4964 8.52213L87.0064 12.3088C87.4377 12.4382 87.7482 12.6797 87.938 13.0506L94.7091 29.698L105.698 43.9216C105.948 44.2321 106.069 44.6634 105.948 45.0429L100.419 62.1216L99.7378 80.0629C99.7378 80.4941 99.4877 80.8737 99.1771 81.1238L83.9616 90.6896L71.9116 103.982C71.6011 104.292 71.2302 104.413 70.7903 104.353L52.9698 101.937L35.0199 104.422L35.0285 104.413Z" fill="#FFA788"/>
<path d="M87.4299 54.2377C87.4299 72.9646 72.4314 88.2745 53.748 88.6892H52.9698C33.9836 88.6892 18.5097 73.2724 18.5097 54.2291C18.5097 35.1865 33.9915 19.7776 52.9698 19.7776C71.946 19.7776 87.4299 35.2534 87.4299 54.2377Z" fill="white" stroke="#FF6600" stroke-width="3"/>
<path d="M46.8611 70.0643L33.1453 56.4089C33.1441 56.4077 33.1429 56.4065 33.1417 56.4053C32.31 55.5578 32.05 54.674 32.1041 53.8827C32.1601 53.0652 32.5588 52.2618 33.1889 51.6412C33.8192 51.0205 34.6334 50.63 35.4549 50.5792C36.251 50.5299 37.1219 50.7936 37.9343 51.6054C37.9347 51.6059 37.9352 51.6063 37.9356 51.6067L46.3171 60.0486L47.0232 60.7598L47.7329 60.0522L68.4774 39.368L68.4775 39.368L68.4837 39.3617C69.299 38.5342 70.1609 38.2729 70.9392 38.3226C71.744 38.3741 72.5438 38.7657 73.1651 39.3901C73.7864 40.0144 74.1794 40.8215 74.2333 41.6359C74.2856 42.4242 74.0269 43.2898 73.2152 44.1019C73.2149 44.1022 73.2146 44.1025 73.2143 44.1028L47.1918 70.0563L47.143 70.105L47.1271 70.1259C47.1086 70.1302 47.0761 70.1353 47.0268 70.1353H46.97C46.9642 70.1335 46.9584 70.1314 46.9527 70.129C46.9285 70.1189 46.8974 70.1006 46.8627 70.0659L46.8611 70.0643Z" fill="#FFC9A5" stroke="#FC6423" stroke-width="2"/>
</g>
<defs>
<clipPath id="clip0_908_165">
<rect width="106" height="104.413" fill="white"/>
</clipPath>
</defs>
</svg>
