<svg width="90" height="97" viewBox="0 0 90 97" fill="none" xmlns="http://www.w3.org/2000/svg">
<g clip-path="url(#clip0_951_51)">
<path d="M14.4643 33.9502H11.25V37.1835H14.4643V33.9502Z" fill="black"/>
<path d="M33.75 33.9502H17.6786V37.1835H33.75V33.9502Z" fill="black"/>
<path d="M33.75 40.417H8.03571V43.6503H33.75V40.417Z" fill="black"/>
<path d="M27.3214 46.8838H8.03571V50.1171H27.3214V46.8838Z" fill="black"/>
<path d="M46.6071 80.833H43.3929V84.0663H46.6071V80.833Z" fill="black"/>
<path d="M49.8214 12.9336H46.6071V16.1669H49.8214V12.9336Z" fill="black"/>
<path d="M43.3929 12.9336H40.1786V16.1669H43.3929V12.9336Z" fill="black"/>
<path d="M19.2857 12.9335V27.4835H4.82143C2.1596 27.4835 0 29.6559 0 32.3335V51.7335C0 54.4111 2.1596 56.5835 4.82143 56.5835H19.2857V84.0668C19.2857 87.6376 22.1645 90.5335 25.7143 90.5335H64.2857C67.8355 90.5335 70.7143 87.6376 70.7143 84.0668V64.6668H85.1786C87.8404 64.6668 90 62.4944 90 59.8168V37.1835C90 34.5059 87.8404 32.3335 85.1786 32.3335H70.7143V12.9335C70.7143 9.36265 67.8355 6.4668 64.2857 6.4668H25.7143C22.1645 6.4668 19.2857 9.36265 19.2857 12.9335ZM3.21429 51.7335V32.3335C3.21429 31.4403 3.93348 30.7168 4.82143 30.7168H36.9643C37.8522 30.7168 38.5714 31.4403 38.5714 32.3335V51.7335C38.5714 52.6267 37.8522 53.3501 36.9643 53.3501H32.1429C31.2549 53.3501 30.5357 54.0736 30.5357 54.9668V58.4123L23.392 53.6229C23.1268 53.4471 22.8174 53.3522 22.5 53.3522H4.82143C3.93348 53.3522 3.21429 52.6287 3.21429 51.7355V51.7335ZM64.2857 87.3001H25.7143C23.9384 87.3001 22.5 85.8532 22.5 84.0668V77.6001H67.5V84.0668C67.5 85.8532 66.0616 87.3001 64.2857 87.3001ZM86.7857 37.1835V59.8168C86.7857 60.71 86.0665 61.4335 85.1786 61.4335H67.5C67.1826 61.4335 66.8732 61.5284 66.608 61.7043L59.4643 66.4936V63.0481C59.4643 62.1549 58.7451 61.4314 57.8571 61.4314H53.0357C52.1478 61.4314 51.4286 60.708 51.4286 59.8148V37.1814C51.4286 36.2882 52.1478 35.5648 53.0357 35.5648H85.1786C86.0665 35.5648 86.7857 36.2882 86.7857 37.1814V37.1835ZM53.0357 32.3335C50.3739 32.3335 48.2143 34.5059 48.2143 37.1835V59.8168C48.2143 62.4944 50.3739 64.6668 53.0357 64.6668H56.25V69.5168C56.25 70.41 56.9692 71.1335 57.8571 71.1335C58.1746 71.1335 58.4859 71.0385 58.7491 70.8606L67.5 64.9881V74.3648H22.5V56.9048L31.2509 62.7733C31.9902 63.2684 32.9866 63.0683 33.4788 62.3267C33.6536 62.0619 33.748 61.7507 33.75 61.4314V56.5814H36.9643C39.6261 56.5814 41.7857 54.409 41.7857 51.7314V32.3314C41.7857 29.6538 39.6261 27.4814 36.9643 27.4814H22.5V22.6314H67.5V32.3314H53.0357V32.3335ZM67.5 12.9335V19.4001H22.5V12.9335C22.5 11.147 23.9384 9.70013 25.7143 9.70013H64.2857C66.0616 9.70013 67.5 11.147 67.5 12.9335Z" fill="black"/>
<path d="M12.8571 85.6833C12.8652 91.9297 17.8975 96.9919 24.1071 97V93.7667C19.6714 93.7606 16.0775 90.1453 16.0714 85.6833V72.75H12.8571V85.6833Z" fill="black"/>
<path d="M16.0714 66.2832H12.8571V69.5165H16.0714V66.2832Z" fill="black"/>
<path d="M77.1428 11.3167C77.1348 5.07027 72.1024 0.00808333 65.8928 0H61.0714V3.23333H65.8928C70.3286 3.2394 73.9225 6.85467 73.9286 11.3167V19.4H77.1428V11.3167Z" fill="black"/>
<path d="M77.1429 22.6338H73.9286V25.8671H77.1429V22.6338Z" fill="black"/>
<path d="M61.0714 53.3498H64.2857V56.5831C64.2857 57.4763 65.0049 58.1998 65.8929 58.1998H72.3214C73.2094 58.1998 73.9286 57.4763 73.9286 56.5831V53.3498H77.1429C78.0308 53.3498 78.75 52.6263 78.75 51.7331V45.2665C78.75 44.3733 78.0308 43.6498 77.1429 43.6498H73.9286V40.4165C73.9286 39.5233 73.2094 38.7998 72.3214 38.7998H65.8929C65.0049 38.7998 64.2857 39.5233 64.2857 40.4165V43.6498H61.0714C60.1835 43.6498 59.4643 44.3733 59.4643 45.2665V51.7331C59.4643 52.6263 60.1835 53.3498 61.0714 53.3498ZM62.6786 46.8831H65.8929C66.7808 46.8831 67.5 46.1597 67.5 45.2665V42.0331H70.7143V45.2665C70.7143 46.1597 71.4335 46.8831 72.3214 46.8831H75.5357V50.1165H72.3214C71.4335 50.1165 70.7143 50.8399 70.7143 51.7331V54.9665H67.5V51.7331C67.5 50.8399 66.7808 50.1165 65.8929 50.1165H62.6786V46.8831Z" fill="black"/>
</g>
<defs>
<clipPath id="clip0_951_51">
<rect width="90" height="97" fill="white"/>
</clipPath>
</defs>
</svg>
