<svg width="87" height="87" viewBox="0 0 87 87" fill="none" xmlns="http://www.w3.org/2000/svg">
<g clip-path="url(#clip0_951_44)">
<path d="M72.9078 75.7214C71.9948 75.5062 71.0795 76.0726 70.8642 76.9879L69.0019 84.9108C68.7866 85.8239 69.3531 86.7392 70.2661 86.9544C70.3975 86.9838 70.5289 86.9997 70.6558 86.9997C71.4261 86.9997 72.1239 86.4718 72.3097 85.6879L74.172 77.765C74.3873 76.8497 73.8209 75.9367 72.9056 75.7214H72.9078Z" fill="black"/>
<path d="M66.0067 16.8678C66.0067 12.4906 67.2392 8.21987 69.5728 4.51783L70.7781 2.60791C71.2788 1.81494 71.0409 0.763694 70.2457 0.265256C69.4527 -0.235447 68.4037 0.00244371 67.903 0.797678L66.6977 2.7076C64.0243 6.95338 62.6083 11.8517 62.6083 16.87C62.6083 22.2305 64.022 27.4505 66.7091 32.061H20.2909C22.978 27.4505 24.3917 22.2305 24.3917 16.87C24.3917 11.8517 22.978 6.95338 20.3023 2.7076L19.097 0.797678C18.5985 0.000178088 17.5495 -0.237713 16.7543 0.262991C15.9591 0.763694 15.7212 1.81268 16.2219 2.60565L17.4272 4.51557C19.7608 8.2176 20.9933 12.4906 20.9933 16.8655C20.9933 22.0651 19.4934 27.1174 16.6591 31.4742C11.7495 39.021 9.15539 47.7663 9.15539 56.7699C9.15539 60.3406 9.57 63.9112 10.3856 67.3867L14.688 85.6861C14.8716 86.4678 15.5716 86.9979 16.3419 86.9979C16.4711 86.9979 16.6002 86.9821 16.7316 86.9526C17.6447 86.7374 18.2111 85.8243 17.9959 84.909L13.6934 66.6096C12.9367 63.3901 12.5516 60.0778 12.5516 56.7699C12.5516 54.348 12.7555 51.9464 13.1542 49.5856L38.0398 65.1709V85.301C38.0398 86.2389 38.8011 87.0002 39.7391 87.0002C40.677 87.0002 41.4383 86.2389 41.4383 85.301V65.9299H45.5594V85.301C45.5594 86.2389 46.3207 87.0002 47.2587 87.0002C48.1966 87.0002 48.9579 86.2389 48.9579 85.301V65.1709L73.8435 49.5856C74.2423 51.9464 74.4462 54.348 74.4462 56.7699C74.4462 58.587 74.3284 60.4199 74.0995 62.221C73.9794 63.1522 74.6387 64.0041 75.5699 64.1219C75.6424 64.131 75.7149 64.1355 75.7874 64.1355C76.6302 64.1355 77.3598 63.5102 77.4708 62.6515C77.72 60.7076 77.8446 58.7297 77.8446 56.7699C77.8446 47.7686 75.2505 39.021 70.3409 31.4742C67.5066 27.1152 66.0067 22.0628 66.0067 16.8632V16.8678ZM46.7716 62.5314H40.2284L13.9087 46.049C14.858 42.356 16.3034 38.7967 18.2111 35.4572H68.7889C70.6988 38.7967 72.142 42.356 73.0913 46.049L46.7716 62.5314Z" fill="black"/>
<path d="M85.3008 14.3598H75.8939L76.7888 13.4671C77.4527 12.8033 77.4527 11.7271 76.7888 11.0633C76.125 10.3995 75.0488 10.3995 74.385 11.0633L70.5901 14.8582C69.9263 15.5221 69.9263 16.5982 70.5901 17.2621L74.385 21.057C74.718 21.3878 75.153 21.5554 75.5858 21.5554C76.0185 21.5554 76.4558 21.39 76.7888 21.057C77.4527 20.3931 77.4527 19.317 76.7888 18.6531L75.8939 17.7582H85.3008C86.2388 17.7582 87 16.997 87 16.059C87 15.121 86.2388 14.3598 85.3008 14.3598Z" fill="black"/>
<path d="M10.2112 18.6502C9.54734 19.314 9.54734 20.3902 10.2112 21.054C10.542 21.3848 10.9792 21.5525 11.412 21.5525C11.8447 21.5525 12.282 21.3871 12.6127 21.054L16.4077 17.2591C17.0715 16.5953 17.0715 15.5191 16.4077 14.8553L12.6127 11.0604C11.9489 10.3965 10.8727 10.3965 10.2089 11.0604C9.54508 11.7242 9.54508 12.8004 10.2089 13.4642L11.1038 14.3569H1.69922C0.76125 14.3569 0 15.1181 0 16.0561C0 16.994 0.76125 17.7553 1.69922 17.7553H11.1061L10.2112 18.6502Z" fill="black"/>
<path d="M43.5 24.8086C43.9463 24.8086 44.3859 24.6273 44.7008 24.3102C45.0157 23.9952 45.1992 23.5557 45.1992 23.1094C45.1992 22.663 45.018 22.2235 44.7008 21.9086C44.3836 21.5937 43.9463 21.4102 43.5 21.4102C43.0537 21.4102 42.6141 21.5914 42.2992 21.9086C41.982 22.2258 41.8008 22.663 41.8008 23.1094C41.8008 23.5557 41.982 23.9952 42.2992 24.3102C42.6164 24.6273 43.0537 24.8086 43.5 24.8086Z" fill="black"/>
<path d="M74.2717 68.2363C73.8231 68.2363 73.3859 68.4176 73.0709 68.7348C72.7537 69.0497 72.5725 69.4892 72.5725 69.9355C72.5725 70.3819 72.7537 70.8191 73.0709 71.1363C73.3859 71.4535 73.8231 71.6348 74.2717 71.6348C74.7203 71.6348 75.1576 71.4535 75.4725 71.1363C75.7897 70.8191 75.9709 70.3819 75.9709 69.9355C75.9709 69.4892 75.792 69.0497 75.4725 68.7348C75.1576 68.4176 74.7203 68.2363 74.2717 68.2363Z" fill="black"/>
</g>
<defs>
<clipPath id="clip0_951_44">
<rect width="87" height="87" fill="white"/>
</clipPath>
</defs>
</svg>
