<svg width="246" height="246" viewBox="0 0 246 246" fill="none" xmlns="http://www.w3.org/2000/svg">
<circle cx="123.5" cy="122.5" r="107.5" fill="white"/>
<circle cx="123" cy="123" r="122" stroke="#FF6600" stroke-width="2"/>
<g clip-path="url(#clip0_1272_3)">
<path d="M107.447 83.9141V166.393C107.447 175.012 114.414 181.997 123 181.997C131.586 181.997 138.556 175.009 138.556 166.393V83.9141H107.447Z" fill="#FCEFEB"/>
<path d="M143 81.6875C143 85.3796 140.019 88.375 136.333 88.375H109.667C105.989 88.375 103 85.3796 103 81.6875C103 77.9954 105.989 75 109.667 75H136.333C140.019 75 143 77.9954 143 81.6875Z" fill="#FFD1C0"/>
<path d="M107.447 115.125V166.396C107.447 175.014 114.414 182 123 182C131.586 182 138.556 175.012 138.556 166.396V115.125H107.447Z" fill="#FF6600"/>
<path d="M120.781 130.726C120.781 129.495 119.783 128.5 118.558 128.5H107.447V132.958H118.558C119.786 132.958 120.781 131.958 120.781 130.729V130.726Z" fill="#E25B00"/>
<path d="M118.556 141.875H107.447V146.333H118.558C119.786 146.333 120.781 145.333 120.781 144.104C120.781 142.875 119.783 141.878 118.558 141.878L118.556 141.875Z" fill="#E25B00"/>
<path d="M120.781 117.351C120.781 116.12 119.783 115.125 118.558 115.125H107.447V119.583H118.558C119.786 119.583 120.781 118.583 120.781 117.354V117.351Z" fill="#E25B00"/>
</g>
<defs>
<clipPath id="clip0_1272_3">
<rect width="40" height="107" fill="white" transform="translate(103 75)"/>
</clipPath>
</defs>
</svg>
