<svg width="106" height="102" viewBox="0 0 106 102" fill="none" xmlns="http://www.w3.org/2000/svg">
<g clip-path="url(#clip0_908_149)">
<path d="M89.994 50.4637C89.994 71.1685 73.1937 87.9577 52.4685 87.9577C31.7433 87.9577 14.943 71.1715 14.943 50.4637C14.943 29.7559 31.7433 12.9697 52.4685 12.9697C73.1937 12.9697 89.994 29.7559 89.994 50.4637Z" fill="#FFE2E2"/>
<path d="M74.245 51.7183C74.245 64.7026 63.7115 75.2272 50.7163 75.2272C37.7211 75.2272 27.1877 64.7026 27.1877 51.7183C27.1877 38.734 37.7211 28.2095 50.7163 28.2095C63.7115 28.2095 74.245 38.734 74.245 51.7183Z" fill="white"/>
<path d="M105.489 45.7339C104.806 45.0511 103.696 45.0511 103.013 45.7339L101.439 47.3066C99.6659 20.9266 77.6208 0 50.7748 0C23.9287 0 0 22.759 0 50.735C0 78.7111 22.7781 101.47 50.7748 101.47C70.5479 101.47 88.6682 89.8426 96.9442 71.8484C97.3472 70.9701 96.9618 69.9314 96.0828 69.5258C95.2038 69.1202 94.1641 69.5054 93.7582 70.3866C86.0546 87.1436 69.1812 97.9716 50.7718 97.9716C24.7055 97.9716 3.50141 76.7824 3.50141 50.738C3.50141 24.6935 24.7113 3.50138 50.7748 3.50138C76.8382 3.50138 96.0156 22.7211 97.905 47.0469L96.5909 45.7339C95.9075 45.0511 94.7978 45.0511 94.1145 45.7339C93.4312 46.4167 93.4312 47.5254 94.1145 48.2111L98.5621 52.655C99.2454 53.3377 100.355 53.3407 101.038 52.655L105.486 48.2111C106.169 47.5284 106.169 46.4196 105.486 45.7339H105.489Z" fill="#FC6423"/>
<path d="M50.7193 12.4736C29.0625 12.4736 11.4416 30.0798 11.4416 51.7183C11.4416 73.3569 29.0625 90.963 50.7193 90.963C72.376 90.963 89.9969 73.3569 89.9969 51.7183C89.9969 30.0798 72.376 12.4736 50.7193 12.4736ZM50.7193 87.4616C30.9928 87.4616 14.9459 71.4282 14.9459 51.7183C14.9459 32.0084 30.9928 15.975 50.7193 15.975C70.4457 15.975 86.4926 32.0084 86.4926 51.7183C86.4926 71.4282 70.4457 87.4616 50.7193 87.4616Z" fill="#FC6423"/>
<path d="M67.2918 23.0479C66.4537 22.5635 65.3819 22.8465 64.8972 23.684C64.4124 24.5214 64.6986 25.5922 65.5338 26.0766C72.3964 30.0506 77.4602 36.712 79.4255 44.345C79.6679 45.2816 80.6228 45.8448 81.5602 45.6055C82.4977 45.3633 83.0613 44.4092 82.8218 43.4755C80.6228 34.938 74.9634 27.4946 67.2918 23.0508V23.0479Z" fill="#FC6423"/>
<path d="M80.3308 50.4636C80.3483 50.8809 80.3571 51.2981 80.3571 51.7183C80.3571 52.6841 81.1427 53.469 82.1093 53.469C83.0759 53.469 83.8614 52.6841 83.8614 51.7183C83.8614 51.2544 83.8527 50.7817 83.8322 50.3148C83.7913 49.349 82.9737 48.5933 82.01 48.64C81.0434 48.6808 80.2928 49.4949 80.3308 50.4636Z" fill="#FC6423"/>
<path d="M50.7193 24.4221C35.7237 24.4221 23.4001 36.604 23.4001 51.7183C23.4001 66.8326 35.5923 79.0145 50.7193 79.0145C65.7178 79.0145 78.0384 66.8268 78.0384 51.7183C78.0384 36.6099 65.8872 24.4221 50.7222 24.4221H50.7193ZM68.9564 53.469H74.4611C74.0756 58.7153 71.9847 63.4917 68.7373 67.247L64.8534 63.3663C64.1671 62.6835 63.0574 62.6835 62.3741 63.3663C61.6907 64.049 61.6907 65.1578 62.3741 65.8406L66.258 69.7213C62.4967 72.9659 57.7162 75.055 52.4685 75.4402V69.9401C52.4685 68.9743 51.683 68.1894 50.7163 68.1894C49.7497 68.1894 48.9642 68.9743 48.9642 69.9401V75.4402C43.7135 75.055 38.9331 72.9659 35.1747 69.7213L39.0615 65.8406C39.7449 65.1578 39.7449 64.049 39.0615 63.3663C38.3782 62.6835 37.2656 62.6835 36.5822 63.3663L32.6983 67.247C29.4509 63.4888 27.36 58.7153 26.9745 53.469H32.4822C33.4488 53.469 34.2343 52.6841 34.2343 51.7183C34.2343 50.7525 33.4488 49.9676 32.4822 49.9676H26.9745C27.36 44.7214 29.4509 39.9449 32.6983 36.1897L36.5822 40.0704C36.9239 40.4118 37.3736 40.5839 37.8204 40.5839C38.2672 40.5839 38.717 40.4118 39.0586 40.0704C39.742 39.3876 39.742 38.2788 39.0586 37.5961L35.1717 33.7154C38.9331 30.4708 43.7135 28.3816 48.9613 27.9994V33.4995C48.9613 34.4653 49.7439 35.2501 50.7134 35.2501C51.683 35.2501 52.4656 34.4653 52.4656 33.4995V27.9994C57.7162 28.3816 62.4938 30.4737 66.2551 33.7183L62.3712 37.6019C61.6878 38.2847 61.6878 39.3935 62.3712 40.0762C63.0545 40.759 64.1642 40.759 64.8505 40.0762L68.7344 36.1926C71.9818 39.9508 74.0727 44.7243 74.4581 49.9705H68.9534C67.9839 49.9705 67.2013 50.7554 67.2013 51.7212C67.2013 52.687 67.9839 53.4719 68.9534 53.4719L68.9564 53.469Z" fill="#FC6423"/>
<path d="M50.7193 44.0941C49.7497 44.0941 48.9671 44.8761 48.9671 45.8448V50.9918L44.3735 55.5787C43.6902 56.2614 43.6902 57.3731 44.3735 58.0559C45.0569 58.7416 46.1666 58.7416 46.8499 58.0559L51.9575 52.9555C52.2845 52.6287 52.4685 52.1823 52.4685 51.7184V45.8477C52.4685 44.879 51.6859 44.097 50.7163 44.097L50.7193 44.0941Z" fill="#FC6423"/>
</g>
<defs>
<clipPath id="clip0_908_149">
<rect width="106" height="101.47" fill="white"/>
</clipPath>
</defs>
</svg>
