<svg width="246" height="246" viewBox="0 0 246 246" fill="none" xmlns="http://www.w3.org/2000/svg">
<circle cx="123.5" cy="122.5" r="107.5" fill="white"/>
<circle cx="123" cy="123" r="122" stroke="#FF6600" stroke-width="2"/>
<g clip-path="url(#clip0_1272_5)">
<path d="M156.257 94.7396C151.952 90.3989 146.048 88 139.952 88C133.857 88 127.99 90.4369 123.648 94.7396L89.7429 128.628C80.7524 137.614 80.7524 152.236 89.7429 161.222C98.7333 170.208 113.362 170.208 122.352 161.222L156.219 127.372C160.562 123.069 162.962 117.205 162.962 111.075C162.962 104.944 160.524 99.0804 156.219 94.7777L156.257 94.7396Z" fill="#FCEFEB"/>
<path d="M156.257 127.372L122.39 161.222C116.867 166.743 108.981 169.104 101.324 167.505C93.7047 165.906 87.3809 160.537 84.5619 153.302C129.705 149.037 149.171 117.967 157.324 95.958C165.286 105.097 164.79 118.804 156.219 127.372H156.257Z" fill="#FFD1C0"/>
<path d="M156.257 127.372L139.305 144.316L106.695 111.684L123.61 94.7395C132.638 85.7914 147.19 85.7914 156.181 94.7776C165.171 103.764 165.21 118.309 156.219 127.334L156.257 127.372Z" fill="#FF6600"/>
<path d="M156.257 127.372L139.305 144.316L130.314 135.33C142.619 124.782 151.952 111.227 157.324 95.958C165.248 105.097 164.79 118.804 156.219 127.372H156.257Z" fill="#E25B00"/>
</g>
<defs>
<clipPath id="clip0_1272_5">
<rect width="80" height="80" fill="white" transform="translate(83 88)"/>
</clipPath>
</defs>
</svg>
