<svg width="246" height="246" viewBox="0 0 246 246" fill="none" xmlns="http://www.w3.org/2000/svg">
<circle cx="123.5" cy="122.5" r="107.5" fill="white"/>
<circle cx="123" cy="123" r="122" stroke="#FF6600" stroke-width="2"/>
<g clip-path="url(#clip0_1272_2)">
<path d="M175 131.572C175 159.975 151.943 183 123.5 183C95.057 183 72 159.975 72 131.572C72 103.168 95.057 80.1431 123.5 80.1431C151.943 80.1431 175 103.168 175 131.572Z" fill="#FFD1C0"/>
<path d="M123.5 144.429C118.761 144.429 114.917 140.589 114.917 135.857V130.471C114.917 122.664 120.217 115.843 127.81 113.886C135.556 111.889 140.956 104.625 140.652 96.6072C140.32 87.8679 132.927 80.4894 124.176 80.1536C119.462 79.9644 114.988 81.6715 111.594 84.9286C108.204 88.1965 106.333 92.5822 106.333 97.2858C106.333 101.989 102.489 105.857 97.75 105.857C93.0113 105.857 89.1667 102.018 89.1667 97.2858C89.1667 87.8786 92.904 79.1108 99.692 72.5858C106.473 66.0608 115.403 62.6644 124.827 63.0251C142.641 63.7001 157.129 78.1644 157.805 95.9572C158.413 111.968 147.601 126.486 132.098 130.482L132.076 135.857C132.076 140.589 128.232 144.429 123.493 144.429H123.5Z" fill="#FF6600"/>
<path d="M132.083 161.571C132.083 166.304 128.239 170.143 123.5 170.143C118.761 170.143 114.917 166.304 114.917 161.571C114.917 156.839 118.761 153 123.5 153C128.239 153 132.083 156.839 132.083 161.571Z" fill="#FF6600"/>
</g>
<defs>
<clipPath id="clip0_1272_2">
<rect width="103" height="120" fill="white" transform="translate(72 63)"/>
</clipPath>
</defs>
</svg>
