<svg width="106" height="102" viewBox="0 0 106 102" fill="none" xmlns="http://www.w3.org/2000/svg">
<g clip-path="url(#clip0_908_146)">
<path fill-rule="evenodd" clip-rule="evenodd" d="M60.9927 50.1422H68.0964C72.06 50.1422 75.2828 46.919 75.2828 42.955V28.307C75.2828 28.136 75.2173 27.9736 75.0947 27.8539C74.9751 27.7342 74.8126 27.6686 74.6417 27.6686H69.4414L80.6341 13.4482L91.8239 27.6686H86.1934C85.84 27.6686 85.5522 27.9536 85.5522 28.3099V42.9578C85.5522 52.5844 77.7248 60.4128 68.0993 60.4128H60.9956C57.0348 60.4128 53.8092 63.6388 53.8092 67.6V99.6489H43.5398V67.6C43.5398 57.9706 51.3701 50.1422 60.9956 50.1422H60.9927ZM43.3232 49.5808L45.0699 48.1473C47.3894 46.2436 50.0309 44.7674 52.8689 43.7985L53.5898 43.5506V16.8166C53.5898 16.4604 53.8776 16.1754 54.231 16.1754H59.8615L48.6688 1.95776L37.479 16.1754H42.6792C42.8502 16.1754 43.0126 16.241 43.1323 16.3635C43.252 16.4832 43.3204 16.6485 43.3204 16.8166V49.5808H43.3232Z" fill="#FFA788"/>
<path fill-rule="evenodd" clip-rule="evenodd" d="M34.7749 79.6091H25.3717C16.356 79.6091 9.01865 72.2738 9.01865 63.2541V28.3099C9.01865 27.3638 8.25214 26.6 7.30897 26.6H3.87822L12.8683 15.178L21.8583 26.6H18.8578C18.4048 26.6 17.9717 26.7796 17.6497 27.0987C17.3277 27.4179 17.1482 27.8539 17.1482 28.3071C17.1482 34.1634 17.1311 40.0767 17.114 45.7934C17.0997 51.5044 17.0826 57.4092 17.0826 63.2513C17.0826 67.8224 20.8012 71.5413 25.3717 71.5413H34.7749V79.6063V79.6091ZM36.4846 68.1244H25.3717C22.6875 68.1244 20.502 65.9415 20.502 63.2541C20.502 57.4149 20.5191 51.513 20.5333 45.8048C20.5476 40.6381 20.5647 35.3176 20.5675 30.0169H22.7445C23.8985 30.0169 24.93 29.37 25.4316 28.3327C25.9359 27.2925 25.8048 26.0842 25.0925 25.178L15.2134 12.6303C14.6349 11.8979 13.8 11.4904 12.8626 11.4904C11.9251 11.4904 11.0931 11.8979 10.5146 12.6303L0.644079 25.1808C-0.0682868 26.0871 -0.199362 27.2954 0.304993 28.3356C0.809348 29.3729 1.838 30.0198 2.99204 30.0198H5.59929V63.2541C5.59929 74.1575 14.4697 83.0289 25.3717 83.0289H36.4846C37.4306 83.0289 38.1943 82.2651 38.1943 81.319V69.8343C38.1943 68.8882 37.4306 68.1244 36.4846 68.1244ZM52.7379 67.6001V98.5802H44.6056V67.6001C44.6056 58.5634 51.9572 51.2109 60.9928 51.2109H68.0965C72.6471 51.2109 76.3486 47.509 76.3486 42.955V28.3071C76.3486 27.8539 76.1691 27.4179 75.8471 27.0987C75.5251 26.7796 75.092 26.6 74.6361 26.6H71.6384L80.6313 15.178L89.6185 26.6H86.1878C85.2446 26.6 84.4781 27.3638 84.4781 28.3099V42.9579C84.4781 51.9946 77.1293 59.3442 68.0937 59.3442H60.99C56.4365 59.3442 52.7351 63.049 52.7351 67.6001H52.7379ZM68.0965 62.764C79.0157 62.764 87.9003 53.8783 87.9003 42.9579V30.0198H90.5076C91.6645 30.0198 92.6931 29.3729 93.2003 28.3356C93.7018 27.2954 93.5707 26.0871 92.8584 25.1808L82.9821 12.636C82.4008 11.9008 81.5688 11.4932 80.637 11.4932C79.7053 11.4932 78.8675 11.9008 78.2891 12.636L68.4128 25.1808C67.6976 26.0871 67.5666 27.2982 68.0709 28.3356C68.5724 29.3729 69.6039 30.0198 70.7608 30.0198H72.9349V42.9579C72.9349 45.6224 70.7665 47.794 68.1022 47.794H60.9985C50.0766 47.794 41.1919 56.6796 41.1919 67.6029V100.293C41.1919 101.236 41.9584 102.003 42.9016 102.003H54.4533C55.3965 102.003 56.163 101.236 56.163 100.293V67.6029C56.163 64.9355 58.3314 62.7668 60.9985 62.7668H68.1022L68.0965 62.764ZM90.8951 84.8157L102.316 75.8246L90.8951 66.8335V69.8343C90.8951 70.2874 90.7156 70.7235 90.3964 71.0455C90.0773 71.3647 89.6442 71.5471 89.1854 71.5471H62.5686V79.6804H89.1854C90.1314 79.6804 90.8951 80.4441 90.8951 81.3903V84.8214V84.8157ZM104.86 73.4764L92.3141 63.599C91.4052 62.8808 90.197 62.7526 89.1598 63.257C88.1226 63.7614 87.4757 64.793 87.4757 65.9472V68.1244H60.8589C59.9157 68.1244 59.1492 68.891 59.1492 69.8343V81.3874C59.1492 82.3307 59.9157 83.0973 60.8589 83.0973H87.4757V85.7048C87.4757 86.859 88.1226 87.8906 89.1598 88.3922C89.5786 88.5974 90.026 88.6971 90.4705 88.6971C91.1288 88.6971 91.7727 88.4777 92.317 88.0559L104.86 78.1757C105.595 77.5972 106 76.7622 106 75.8274C106 74.8927 105.593 74.0606 104.86 73.4792V73.4764ZM39.6789 15.1068H42.6793C43.1324 15.1068 43.5684 15.2863 43.8904 15.6083C44.2095 15.9275 44.389 16.3635 44.389 16.8167V47.3209C46.8082 45.3346 49.5579 43.7986 52.5214 42.7869V16.8167C52.5214 15.8705 53.2879 15.1068 54.2311 15.1068H57.659L48.6689 3.68479L39.6789 15.1068ZM42.0724 52.9265C41.4085 52.6728 40.9697 52.0402 40.9697 51.3306V18.5265H38.7927C37.6386 18.5265 36.6071 17.8825 36.1028 16.8423C35.6013 15.805 35.7295 14.5967 36.4419 13.6876L46.321 1.13992C46.9022 0.404671 47.7343 0 48.6689 0C49.6035 0 50.4384 0.404671 51.0169 1.13992L60.8931 13.6847C61.6083 14.591 61.7365 15.8021 61.2322 16.8395C60.7278 17.8796 59.6963 18.5237 58.5423 18.5237H55.935V44.0351C55.935 44.7988 55.4307 45.4685 54.6984 45.6794C50.5581 46.8706 46.8396 49.216 43.9531 52.4648C43.6197 52.8353 43.1524 53.0376 42.6736 53.0376C42.4713 53.0376 42.2633 53.0034 42.0667 52.9265H42.0724Z" fill="#FC6423"/>
</g>
<defs>
<clipPath id="clip0_908_146">
<rect width="106" height="102" fill="white"/>
</clipPath>
</defs>
</svg>
