<svg width="100" height="86" viewBox="0 0 100 86" fill="none" xmlns="http://www.w3.org/2000/svg">
<g clip-path="url(#clip0_951_65)">
<path d="M94.1294 41.852H78.1068V8.6204C78.1003 3.86007 74.2459 0.00323832 69.4887 0H8.61812C3.86084 0.00647664 0.00647249 3.86331 0 8.6204V47.7749C0.00647249 52.5352 3.86084 56.3921 8.61489 56.3953H16.3851V65.8091C16.3689 67.4185 17.3398 68.8725 18.8317 69.4716C19.3204 69.6789 19.8447 69.7825 20.3722 69.7857C21.4175 69.7825 22.4175 69.3583 23.1489 68.6135L35.3592 56.3953H50.7184V71.868C50.7184 75.1128 53.3463 77.7423 56.589 77.7423H77.3981L84.7638 85.1159C85.3236 85.6794 86.0874 85.9968 86.8835 85.9968C87.2783 85.9968 87.6699 85.919 88.0356 85.7668C89.1586 85.3038 89.89 84.206 89.89 82.9916V77.7455H94.123C97.3657 77.7455 99.9903 75.1128 99.9935 71.8712V47.7296C99.9935 44.4848 97.3625 41.8553 94.123 41.852H94.1294ZM34.7605 53.4873C34.3754 53.4873 34.0032 53.6395 33.7314 53.9148L21.0939 66.5604C20.4304 67.221 19.301 66.7514 19.301 65.8156V54.9445C19.301 54.1414 18.6472 53.4873 17.8447 53.4873H8.61812C5.46926 53.4841 2.91909 50.929 2.91586 47.7814V8.6204C2.91909 5.46952 5.47249 2.91449 8.62136 2.91449H69.4919C72.6408 2.91449 75.1942 5.46952 75.1974 8.6204V41.8488H56.5987C53.356 41.852 50.7314 44.4815 50.7282 47.7231V53.4841H34.767L34.7605 53.4873ZM97.0874 71.8745C97.0874 73.5098 95.7637 74.8343 94.1294 74.8343H88.4401C87.6375 74.8343 86.9838 75.4884 86.9838 76.2915L86.8317 83.0596L79.0388 75.2617C78.767 74.9897 78.3948 74.8343 78.0097 74.8343H56.5955C54.9612 74.8343 53.6375 73.5066 53.6375 71.8745V47.7296C53.6375 46.0975 54.9612 44.773 56.5955 44.7697H94.1294C95.7637 44.7697 97.0874 46.0975 97.0874 47.7328V71.8745Z" fill="black"/>
<path d="M56.7832 32.1754V24.2254C56.7832 22.4443 55.3398 21 53.5566 20.9968H46.2524V13.6879C46.2524 11.9036 44.8058 10.4593 43.0259 10.4561H35.0809C33.301 10.4561 31.8544 11.9036 31.8544 13.6879V20.9968H24.5501C22.7702 20.9968 21.3268 22.4443 21.3236 24.2254V32.1754C21.3236 33.9565 22.7702 35.4008 24.5501 35.4041H31.8544V42.7097C31.8544 44.4908 33.301 45.9383 35.0809 45.9383H43.0259C44.8058 45.9383 46.2492 44.4908 46.2524 42.7097V35.4041H53.5566C55.3366 35.4041 56.7799 33.9565 56.7832 32.1754ZM44.7961 32.4896C43.9935 32.4896 43.3398 33.1405 43.3398 33.9468V42.7097C43.3398 42.8846 43.2006 43.0238 43.0259 43.0238H35.0809C34.9061 43.0238 34.767 42.8846 34.767 42.7097V33.9468C34.767 33.1405 34.1133 32.4896 33.3107 32.4896H24.5501C24.3754 32.4896 24.2362 32.3471 24.2362 32.1754V24.2254C24.2362 24.0505 24.3754 23.9113 24.5501 23.9113H33.3107C34.1133 23.9113 34.767 23.2604 34.767 22.454V13.6879C34.767 13.513 34.9094 13.3705 35.0809 13.3705H43.0259C43.2006 13.3705 43.3398 13.513 43.3398 13.6879V22.454C43.3398 23.2604 43.9935 23.9113 44.7961 23.9113H53.5566C53.7281 23.9113 53.8705 24.0537 53.8705 24.2254V32.1754C53.8705 32.3471 53.7281 32.4896 53.5566 32.4896H44.7961Z" fill="black"/>
<path d="M88.7346 53.0791H61.987C60.0453 53.0791 60.0453 55.9936 61.987 55.9936H88.7346C90.6764 55.9936 90.6764 53.0791 88.7346 53.0791Z" fill="black"/>
<path d="M88.7346 63.6035H61.987C60.0453 63.6035 60.0453 66.518 61.987 66.518H88.7346C90.6764 66.518 90.6764 63.6035 88.7346 63.6035Z" fill="black"/>
</g>
<defs>
<clipPath id="clip0_951_65">
<rect width="100" height="86" fill="white"/>
</clipPath>
</defs>
</svg>
