<svg width="414" height="75" viewBox="0 0 414 75" fill="none" xmlns="http://www.w3.org/2000/svg">
<path d="M112.75 26.4C112.75 26.5667 112.683 26.7167 112.55 26.85C112.45 26.95 112.317 27 112.15 27H98.25C98.0833 27 98 27.0833 98 27.25V36.65C98 36.8167 98.0833 36.9 98.25 36.9H107.15C107.317 36.9 107.45 36.9667 107.55 37.1C107.683 37.2 107.75 37.3333 107.75 37.5V41.3C107.75 41.4667 107.683 41.6167 107.55 41.75C107.45 41.85 107.317 41.9 107.15 41.9H98.25C98.0833 41.9 98 41.9833 98 42.15V51.75C98 51.9167 98.0833 52 98.25 52H112.15C112.317 52 112.45 52.0667 112.55 52.2C112.683 52.3 112.75 52.4333 112.75 52.6V56.4C112.75 56.5667 112.683 56.7167 112.55 56.85C112.45 56.95 112.317 57 112.15 57H92.8C92.6333 57 92.4833 56.95 92.35 56.85C92.25 56.7167 92.2 56.5667 92.2 56.4V22.6C92.2 22.4333 92.25 22.3 92.35 22.2C92.4833 22.0667 92.6333 22 92.8 22H112.15C112.317 22 112.45 22.0667 112.55 22.2C112.683 22.3 112.75 22.4333 112.75 22.6V26.4ZM135.935 22.4C136.068 22.1333 136.301 22 136.635 22H141.285C141.451 22 141.585 22.0667 141.685 22.2C141.818 22.3 141.885 22.4333 141.885 22.6V56.4C141.885 56.5667 141.818 56.7167 141.685 56.85C141.585 56.95 141.451 57 141.285 57H136.685C136.518 57 136.368 56.95 136.235 56.85C136.135 56.7167 136.085 56.5667 136.085 56.4V32.7C136.085 32.5667 136.051 32.5 135.985 32.5C135.918 32.4667 135.851 32.5 135.785 32.6L130.485 41.35C130.351 41.6167 130.118 41.75 129.785 41.75H128.835C128.501 41.75 128.268 41.6167 128.135 41.35L122.835 32.65C122.768 32.55 122.701 32.5167 122.635 32.55C122.568 32.55 122.535 32.6167 122.535 32.75V56.4C122.535 56.5667 122.468 56.7167 122.335 56.85C122.235 56.95 122.101 57 121.935 57H117.335C117.168 57 117.018 56.95 116.885 56.85C116.785 56.7167 116.735 56.5667 116.735 56.4V22.6C116.735 22.4333 116.785 22.3 116.885 22.2C117.018 22.0667 117.168 22 117.335 22H121.935C122.268 22 122.501 22.1333 122.635 22.4L129.185 32.85C129.285 33.05 129.385 33.05 129.485 32.85L135.935 22.4ZM165.132 57C164.766 57 164.532 56.8333 164.432 56.5L163.132 51.15C163.099 51.0167 163.016 50.95 162.882 50.95H152.582C152.449 50.95 152.366 51.0167 152.332 51.15L151.082 56.5C150.982 56.8333 150.749 57 150.382 57H145.632C145.199 57 145.032 56.7833 145.132 56.35L154.232 22.5C154.332 22.1667 154.566 22 154.932 22H160.632C160.999 22 161.232 22.1667 161.332 22.5L170.432 56.35L170.482 56.55C170.482 56.85 170.299 57 169.932 57H165.132ZM153.532 46.1C153.499 46.2 153.516 46.2833 153.582 46.35C153.649 46.3833 153.716 46.4 153.782 46.4H161.682C161.749 46.4 161.816 46.3833 161.882 46.35C161.949 46.2833 161.966 46.2 161.932 46.1L157.832 29.7C157.799 29.6 157.749 29.55 157.682 29.55C157.616 29.55 157.566 29.6 157.532 29.7L153.532 46.1ZM183.14 57.4C180.974 57.4 179.057 56.9667 177.39 56.1C175.757 55.2333 174.474 54.0167 173.54 52.45C172.64 50.85 172.19 49.0167 172.19 46.95V32.05C172.19 29.9833 172.64 28.1667 173.54 26.6C174.474 25 175.757 23.7667 177.39 22.9C179.057 22.0333 180.974 21.6 183.14 21.6C185.307 21.6 187.224 22.0333 188.89 22.9C190.557 23.7333 191.84 24.9167 192.74 26.45C193.674 27.9833 194.14 29.7333 194.14 31.7V32.85C194.14 33.0167 194.074 33.1667 193.94 33.3C193.84 33.4 193.707 33.45 193.54 33.45H188.94C188.774 33.45 188.624 33.4 188.49 33.3C188.39 33.1667 188.34 33.0167 188.34 32.85V31.7C188.34 30.2 187.857 28.9833 186.89 28.05C185.957 27.0833 184.707 26.6 183.14 26.6C181.607 26.6 180.357 27.1 179.39 28.1C178.457 29.0667 177.99 30.35 177.99 31.95V47.05C177.99 48.65 178.474 49.95 179.44 50.95C180.44 51.9167 181.724 52.4 183.29 52.4C184.824 52.4 186.04 51.9667 186.94 51.1C187.874 50.2 188.34 48.9833 188.34 47.45V43.5C188.34 43.3333 188.257 43.25 188.09 43.25H183.54C183.374 43.25 183.224 43.2 183.09 43.1C182.99 42.9667 182.94 42.8167 182.94 42.65V39C182.94 38.8333 182.99 38.7 183.09 38.6C183.224 38.4667 183.374 38.4 183.54 38.4H193.54C193.707 38.4 193.84 38.4667 193.94 38.6C194.074 38.7 194.14 38.8333 194.14 39V46.8C194.14 50.1 193.14 52.7 191.14 54.6C189.14 56.4667 186.474 57.4 183.14 57.4ZM215.496 57C215.129 57 214.896 56.8333 214.796 56.5L209.396 42.15C209.329 42.0167 209.246 41.95 209.146 41.95H204.846C204.679 41.95 204.596 42.0333 204.596 42.2V56.4C204.596 56.5667 204.529 56.7167 204.396 56.85C204.296 56.95 204.162 57 203.996 57H199.396C199.229 57 199.079 56.95 198.946 56.85C198.846 56.7167 198.796 56.5667 198.796 56.4V22.6C198.796 22.4333 198.846 22.3 198.946 22.2C199.079 22.0667 199.229 22 199.396 22H210.946C212.846 22 214.529 22.4333 215.996 23.3C217.462 24.1333 218.596 25.3333 219.396 26.9C220.196 28.4333 220.596 30.2 220.596 32.2C220.596 34.3667 220.096 36.25 219.096 37.85C218.096 39.45 216.729 40.5833 214.996 41.25C214.829 41.3167 214.779 41.4333 214.846 41.6L220.746 56.3C220.779 56.3667 220.796 56.4667 220.796 56.6C220.796 56.8667 220.629 57 220.296 57H215.496ZM204.846 27C204.679 27 204.596 27.0833 204.596 27.25V37.2C204.596 37.3667 204.679 37.45 204.846 37.45H210.096C211.496 37.45 212.629 36.9833 213.496 36.05C214.362 35.0833 214.796 33.8167 214.796 32.25C214.796 30.65 214.362 29.3833 213.496 28.45C212.629 27.4833 211.496 27 210.096 27H204.846ZM245.201 26.4C245.201 26.5667 245.135 26.7167 245.001 26.85C244.901 26.95 244.768 27 244.601 27H230.701C230.535 27 230.451 27.0833 230.451 27.25V36.65C230.451 36.8167 230.535 36.9 230.701 36.9H239.601C239.768 36.9 239.901 36.9667 240.001 37.1C240.135 37.2 240.201 37.3333 240.201 37.5V41.3C240.201 41.4667 240.135 41.6167 240.001 41.75C239.901 41.85 239.768 41.9 239.601 41.9H230.701C230.535 41.9 230.451 41.9833 230.451 42.15V51.75C230.451 51.9167 230.535 52 230.701 52H244.601C244.768 52 244.901 52.0667 245.001 52.2C245.135 52.3 245.201 52.4333 245.201 52.6V56.4C245.201 56.5667 245.135 56.7167 245.001 56.85C244.901 56.95 244.768 57 244.601 57H225.251C225.085 57 224.935 56.95 224.801 56.85C224.701 56.7167 224.651 56.5667 224.651 56.4V22.6C224.651 22.4333 224.701 22.3 224.801 22.2C224.935 22.0667 225.085 22 225.251 22H244.601C244.768 22 244.901 22.0667 245.001 22.2C245.135 22.3 245.201 22.4333 245.201 22.6V26.4ZM259.536 57.4C257.369 57.4 255.453 56.9667 253.786 56.1C252.119 55.2 250.819 53.95 249.886 52.35C248.986 50.75 248.536 48.9 248.536 46.8V32.1C248.536 30 248.986 28.1667 249.886 26.6C250.819 25 252.119 23.7667 253.786 22.9C255.453 22.0333 257.369 21.6 259.536 21.6C261.703 21.6 263.619 22.0333 265.286 22.9C266.953 23.7333 268.236 24.9333 269.136 26.5C270.069 28.0333 270.536 29.8333 270.536 31.9V32.2C270.536 32.3667 270.469 32.5167 270.336 32.65C270.236 32.7833 270.103 32.85 269.936 32.85L265.286 33.05C264.886 33.05 264.686 32.85 264.686 32.45V31.85C264.686 30.2833 264.203 29.0167 263.236 28.05C262.303 27.0833 261.069 26.6 259.536 26.6C257.969 26.6 256.703 27.0833 255.736 28.05C254.803 29.0167 254.336 30.2833 254.336 31.85V47.2C254.336 48.7667 254.803 50.0333 255.736 51C256.703 51.9333 257.969 52.4 259.536 52.4C261.069 52.4 262.303 51.9333 263.236 51C264.203 50.0333 264.686 48.7667 264.686 47.2V46.55C264.686 46.1833 264.886 46 265.286 46L269.936 46.2C270.103 46.2 270.236 46.2667 270.336 46.4C270.469 46.5 270.536 46.6333 270.536 46.8V47C270.536 49.0667 270.069 50.9 269.136 52.5C268.236 54.0667 266.953 55.2833 265.286 56.15C263.619 56.9833 261.703 57.4 259.536 57.4ZM281.865 56.95C281.698 56.95 281.548 56.9 281.415 56.8C281.315 56.6667 281.265 56.5167 281.265 56.35V42.85L281.215 42.55L272.565 22.7C272.532 22.6333 272.515 22.5333 272.515 22.4C272.515 22.1333 272.682 22 273.015 22H277.915C278.282 22 278.515 22.15 278.615 22.45L284.015 35.95C284.115 36.1833 284.215 36.1833 284.315 35.95L289.665 22.45C289.765 22.15 289.998 22 290.365 22H295.315C295.548 22 295.698 22.0667 295.765 22.2C295.832 22.3333 295.832 22.5 295.765 22.7L287.065 42.55L287.015 42.85V56.35C287.015 56.5167 286.948 56.6667 286.815 56.8C286.715 56.9 286.582 56.95 286.415 56.95H281.865Z" fill="#FF6600"/>
<g clip-path="url(#clip0_1104_15)">
<path d="M37.5275 75C58.1733 75 75 58.1733 75 37.5275C75 16.8817 58.1733 0 37.5275 0C16.8817 0 0 16.8821 0 37.5279C0 58.1737 16.8821 75.0004 37.5275 75.0004V75Z" fill="#FF6600"/>
<path d="M38.188 8.68994C41.841 8.68994 54.9593 9.40956 54.129 13.3947L51.5831 25.3506C51.2509 26.8452 50.2546 28.284 48.7604 28.1733C46.4355 27.9519 44.7752 27.6751 42.5057 27.4537C40.2361 23.8007 36.9152 21.1436 33.539 20.424C39.6276 24.9627 45.052 36.8632 42.0075 46.4942C44.9962 42.8965 45.7712 37.8596 45.9373 32.6013C49.9224 38.5239 52.1366 44.5018 52.6902 50.8115C53.8526 63.8187 44.8306 70.1841 36.2509 70.0734C26.5646 70.018 17.4872 61.5495 24.904 45.1657C28.4463 37.4168 32.5422 33.0991 33.7046 27.509C31.4904 27.6751 29.8302 27.9519 27.616 28.1733C26.066 28.284 25.125 26.8448 24.7933 25.3506L22.2473 13.3947C21.3617 9.40956 34.48 8.68994 38.1884 8.68994H38.188Z" fill="white"/>
<path d="M29.9959 16.8821L32.2101 24.1332C32.4868 25.0189 32.044 25.9599 31.103 26.126C30.1066 26.3474 29.4423 25.6278 29.3316 24.6867L28.7227 17.1039C28.6673 16.2736 29.7191 16.0521 29.9959 16.8825V16.8821Z" fill="#FF6600"/>
<path d="M37.7451 11.0702C37.7451 10.8488 37.9112 10.6273 38.188 10.6273C38.4094 10.6273 38.5755 10.8488 38.5755 11.0702V13.9482C38.5755 14.1697 38.4094 14.3357 38.188 14.3357C37.9112 14.3357 37.7451 14.1697 37.7451 13.9482V11.0702ZM25.8446 12.6201C25.7892 12.3987 25.5678 12.288 25.3464 12.3434C25.125 12.3987 24.9589 12.6201 25.0143 12.8416L25.7339 15.6089C25.7892 15.8303 26.0107 15.9964 26.2321 15.941C26.4535 15.8857 26.6196 15.6643 26.5642 15.3875L25.8446 12.6201ZM28.9441 11.7898C28.8887 11.5684 28.6673 11.4577 28.4459 11.4577C28.2245 11.513 28.0584 11.7345 28.1137 11.9559L28.6119 14.7786C28.6673 15 28.8887 15.1107 29.1101 15.1107C29.3869 15.0553 29.4976 14.8339 29.4976 14.6125L28.9441 11.7898ZM32.1543 11.347C32.1543 11.1255 31.9328 10.9595 31.7114 10.9595C31.4346 11.0148 31.2686 11.2363 31.3239 11.4577L31.6561 14.2804C31.7114 14.5018 31.8775 14.6679 32.1543 14.6125C32.3757 14.6125 32.5417 14.3911 32.4864 14.1697L32.1543 11.347ZM35.3644 11.1255C35.3644 10.9041 35.143 10.7381 34.9216 10.7381C34.7002 10.7381 34.5341 10.9595 34.5341 11.1809L34.7002 14.0036C34.7002 14.225 34.9216 14.4464 35.143 14.3911C35.3644 14.3911 35.5859 14.1697 35.5305 13.9482L35.3644 11.1255ZM50.4751 12.6201C50.5305 12.3987 50.8073 12.288 51.0287 12.3434C51.2501 12.3987 51.3608 12.6201 51.3055 12.8416L50.6412 15.6089C50.5859 15.8303 50.3644 15.9964 50.143 15.941C49.8662 15.8857 49.7555 15.6643 49.8109 15.3875L50.4751 12.6201ZM47.3757 11.7898C47.431 11.5684 47.6524 11.4577 47.8739 11.4577C48.0953 11.513 48.2614 11.7345 48.206 11.9559L47.7078 14.7786C47.6524 15 47.431 15.1107 47.2096 15.1107C46.9882 15.0553 46.8221 14.8339 46.8775 14.6125L47.3757 11.7898ZM44.1655 11.347C44.2208 11.1255 44.4423 10.9595 44.6637 10.9595C44.8851 11.0148 45.0512 11.2363 45.0512 11.4577L44.6637 14.2804C44.6637 14.5018 44.4423 14.6679 44.2208 14.6125C43.9994 14.6125 43.8334 14.3911 43.8334 14.1697L44.1655 11.347ZM40.9553 11.1255C40.9553 10.9041 41.1767 10.7381 41.3981 10.7381C41.6749 10.7381 41.841 10.9595 41.841 11.1809L41.6196 14.0036C41.6196 14.225 41.4535 14.4464 41.1767 14.3911C40.9553 14.3911 40.7892 14.1697 40.7892 13.9482L40.9553 11.1255Z" fill="#FF6600"/>
<path d="M41.1767 56.2916C39.1286 50.5904 34.0363 47.0481 35.9738 41.5684C31.3244 46.6606 28.1695 52.8047 29.2209 59.2804C29.9405 63.8191 33.206 66.0333 36.2505 66.0886C40.0696 66.0886 43.5017 62.7124 41.1767 56.2916Z" fill="#FF6600"/>
</g>
<defs>
<clipPath id="clip0_1104_15">
<rect width="75" height="75" fill="white"/>
</clipPath>
</defs>
</svg>
