<svg width="117" height="116" viewBox="0 0 117 116" fill="none" xmlns="http://www.w3.org/2000/svg">
<g clip-path="url(#clip0_1238_449)">
<path d="M58.4104 115.567C90.1719 115.567 116.058 89.6804 116.058 57.9189C116.058 26.1575 90.1719 0.186768 58.4104 0.186768C26.6489 0.186768 0.678223 26.1581 0.678223 57.9196C0.678223 89.681 26.6496 115.567 58.4104 115.567V115.567Z" fill="white"/>
<path d="M59.4265 13.5554C65.0463 13.5554 85.2275 14.6625 83.9502 20.7932L80.0335 39.1861C79.5226 41.4854 77.9897 43.6989 75.6911 43.5286C72.1144 43.1879 69.5603 42.7621 66.0688 42.4215C62.5774 36.8017 57.4685 32.7141 52.2745 31.607C61.6413 38.5894 69.9861 56.8971 65.3024 71.7134C69.9003 66.1787 71.0925 58.43 71.348 50.3406C77.4788 59.4519 80.8851 68.6483 81.7367 78.3551C83.525 98.3653 69.6455 108.158 56.4466 107.988C41.5452 107.902 27.5805 94.8745 38.9904 69.6696C44.4399 57.7487 50.741 51.1064 52.5293 42.5067C49.123 42.7621 46.5689 43.1879 43.1626 43.5286C40.7781 43.6989 39.3304 41.4848 38.8201 39.1861L34.9035 20.7932C33.541 14.6625 53.7222 13.5554 59.4271 13.5554H59.4265Z" fill="#FF6600"/>
<path d="M46.8242 26.1579L50.2305 37.313C50.6563 38.6755 49.975 40.1232 48.5273 40.3787C46.9945 40.7193 45.9726 39.6123 45.8023 38.1646L44.8655 26.4992C44.7804 25.2218 46.3984 24.8812 46.8242 26.1586V26.1579Z" fill="white"/>
<path d="M58.7452 17.2172C58.7452 16.8765 59.0007 16.5359 59.4265 16.5359C59.7671 16.5359 60.0226 16.8765 60.0226 17.2172V21.6447C60.0226 21.9854 59.7671 22.2409 59.4265 22.2409C59.0007 22.2409 58.7452 21.9854 58.7452 21.6447V17.2172ZM40.4375 19.6016C40.3523 19.261 40.0117 19.0906 39.6711 19.1758C39.3304 19.261 39.075 19.6016 39.1601 19.9422L40.2672 24.1995C40.3523 24.5401 40.693 24.7956 41.0336 24.7104C41.3742 24.6253 41.6297 24.2846 41.5446 23.8589L40.4375 19.6016ZM45.2057 18.3242C45.1206 17.9836 44.7799 17.8133 44.4393 17.8133C44.0987 17.8984 43.8432 18.2391 43.9283 18.5797L44.6948 22.9221C44.7799 23.2627 45.1206 23.4331 45.4612 23.4331C45.887 23.3479 46.0573 23.0073 46.0573 22.6666L45.2057 18.3242ZM50.1443 17.6429C50.1443 17.3023 49.8036 17.0468 49.463 17.0468C49.0372 17.132 48.7817 17.4726 48.8669 17.8133L49.3778 22.1557C49.463 22.4963 49.7185 22.7518 50.1443 22.6666C50.4849 22.6666 50.7404 22.326 50.6552 21.9854L50.1443 17.6429ZM55.0828 17.3023C55.0828 16.9617 54.7422 16.7062 54.4015 16.7062C54.0609 16.7062 53.8054 17.0468 53.8054 17.3875L54.0609 21.7299C54.0609 22.0705 54.4015 22.4112 54.7422 22.326C55.0828 22.326 55.4234 21.9854 55.3383 21.6447L55.0828 17.3023ZM78.3291 19.6016C78.4142 19.261 78.84 19.0906 79.1807 19.1758C79.5213 19.261 79.6916 19.6016 79.6064 19.9422L78.5845 24.1995C78.4994 24.5401 78.1588 24.7956 77.8181 24.7104C77.3923 24.6253 77.222 24.2846 77.3072 23.8589L78.3291 19.6016ZM73.5608 18.3242C73.646 17.9836 73.9866 17.8133 74.3273 17.8133C74.6679 17.8984 74.9234 18.2391 74.8382 18.5797L74.0718 22.9221C73.9866 23.2627 73.646 23.4331 73.3054 23.4331C72.9647 23.3479 72.7093 23.0073 72.7944 22.6666L73.5608 18.3242ZM68.6223 17.6429C68.7075 17.3023 69.0481 17.0468 69.3887 17.0468C69.7294 17.132 69.9848 17.4726 69.9848 17.8133L69.3887 22.1557C69.3887 22.4963 69.0481 22.7518 68.7075 22.6666C68.3668 22.6666 68.1114 22.326 68.1114 21.9854L68.6223 17.6429ZM63.6838 17.3023C63.6838 16.9617 64.0244 16.7062 64.365 16.7062C64.7908 16.7062 65.0463 17.0468 65.0463 17.3875L64.7057 21.7299C64.7057 22.0705 64.4502 22.4112 64.0244 22.326C63.6838 22.326 63.4283 21.9854 63.4283 21.6447L63.6838 17.3023Z" fill="white"/>
<path d="M64.0248 86.7859C60.874 78.0153 53.0401 72.5658 56.0206 64.1357C48.868 71.9697 44.0146 81.4216 45.6319 91.3838C46.739 98.3662 51.7627 101.772 56.4464 101.858C62.3217 101.858 67.6015 96.6636 64.0248 86.7859Z" fill="white"/>
</g>
<defs>
<clipPath id="clip0_1238_449">
<rect width="115.38" height="115.38" fill="white" transform="translate(0.678467 0.186768)"/>
</clipPath>
</defs>
</svg>
